<?xml version="1.0" encoding="UTF-8" standalone="no"?>
<svg
   width="512"
   height="512"
   viewBox="0 0 512 512"
   fill="none"
   version="1.1"
   id="svg10"
   sodipodi:docname="logo.svg"
   inkscape:version="1.2.1 (9c6d41e410, 2022-07-14, custom)"
   inkscape:export-filename="logo.png"
   inkscape:export-xdpi="96"
   inkscape:export-ydpi="96"
   xmlns:inkscape="http://www.inkscape.org/namespaces/inkscape"
   xmlns:sodipodi="http://sodipodi.sourceforge.net/DTD/sodipodi-0.dtd"
   xmlns="http://www.w3.org/2000/svg"
   xmlns:svg="http://www.w3.org/2000/svg">
  <defs
     id="defs14" />
  <sodipodi:namedview
     id="namedview12"
     pagecolor="#ffffff"
     bordercolor="#666666"
     borderopacity="1.0"
     inkscape:showpageshadow="2"
     inkscape:pageopacity="0.0"
     inkscape:pagecheckerboard="0"
     inkscape:deskcolor="#d1d1d1"
     showgrid="false"
     inkscape:zoom="0.3512931"
     inkscape:cx="502.42945"
     inkscape:cy="893.84049"
     inkscape:window-width="1920"
     inkscape:window-height="1048"
     inkscape:window-x="0"
     inkscape:window-y="0"
     inkscape:window-maximized="1"
     inkscape:current-layer="svg10" />
  <path
     fill-rule="evenodd"
     clip-rule="evenodd"
     d="m 454.07679,229.58976 c -24.61268,0 -45.29191,-16.83356 -51.15663,-39.61536 h -60.54052 c -12.90966,0 -23.92768,9.33371 -26.0504,22.06839 l -2.17059,13.02554 C 312.097,237.43542 305.84107,248.19874 296.99364,256 c 8.84743,7.80125 15.10336,18.56458 17.16501,30.93167 l 2.17059,13.02487 c 2.12272,12.73469 13.14074,22.06906 26.0504,22.06906 h 7.72004 c 5.86472,-22.78214 26.54394,-39.61536 51.15664,-39.61536 29.17176,0 52.82047,23.64872 52.82047,52.82048 0,29.17176 -23.64871,52.82048 -52.82047,52.82048 -24.6127,0 -45.29357,-16.83323 -51.15664,-39.61536 h -7.72004 c -25.82096,0 -47.85701,-18.66709 -52.10245,-44.13647 l -2.17059,-13.0252 c -2.12273,-12.73534 -13.14075,-22.06905 -26.05041,-22.06905 h -20.92516 c -5.86307,22.78213 -26.54394,39.61536 -51.15663,39.61536 -24.6122,0 -45.29274,-16.83323 -51.15647,-39.61536 h -29.73825 c -5.86374,22.78213 -26.544278,39.61536 -51.156476,39.61536 -29.171925,0 -52.820479,-23.64856 -52.820479,-52.82048 0,-29.17193 23.648554,-52.82048 52.820479,-52.82048 24.612198,0 45.292736,16.83356 51.156476,39.61536 h 29.73826 c 5.86373,-22.7818 26.54427,-39.61536 51.15647,-39.61536 24.61269,0 45.29356,16.83356 51.15663,39.61536 h 20.92516 c 12.90966,0 23.92768,-9.33371 26.05041,-22.0684 l 2.17059,-13.02553 c 4.24544,-25.46937 26.28149,-44.13679 52.10245,-44.13679 h 60.54052 c 5.86307,-22.7818 26.54394,-39.61536 51.15662,-39.61536 29.17176,0 52.82048,23.64855 52.82048,52.82048 0,29.17192 -23.64872,52.82048 -52.82048,52.82048 z m 0,-26.41024 c 14.58671,0 26.41024,-11.8242 26.41024,-26.41024 0,-14.58605 -11.82353,-26.41024 -26.41024,-26.41024 -14.5867,0 -26.41023,11.82419 -26.41023,26.41024 0,14.58604 11.82353,26.41024 26.41023,26.41024 z M 57.923204,282.41024 c 14.586046,0 26.41024,-11.8242 26.41024,-26.41024 0,-14.58605 -11.824194,-26.41024 -26.41024,-26.41024 -14.586045,0 -26.410239,11.82419 -26.410239,26.41024 0,14.58604 11.824194,26.41024 26.410239,26.41024 z M 216.38465,256 c 0,14.58604 -11.82354,26.41024 -26.41024,26.41024 -14.58671,0 -26.41024,-11.8242 -26.41024,-26.41024 0,-14.58605 11.82353,-26.41024 26.41024,-26.41024 14.5867,0 26.41024,11.82419 26.41024,26.41024 z m 211.28191,79.23072 c 0,14.5867 -11.82353,26.41024 -26.41023,26.41024 -14.58671,0 -26.41024,-11.82354 -26.41024,-26.41024 0,-14.58671 11.82353,-26.41024 26.41024,-26.41024 14.5867,0 26.41023,11.82353 26.41023,26.41024 z"
     fill="#ea4b71"
     id="path2"
     style="stroke-width:16.5064" />
</svg>
